<?xml version="1.0" encoding="UTF-8"?>
<svg width="200" height="200" viewBox="0 0 200 200" xmlns="http://www.w3.org/2000/svg">
    <!-- Background Circle -->
    <circle cx="100" cy="100" r="98" fill="#e8f5e9"/>
    
    <!-- Face -->
    <circle cx="100" cy="85" r="45" fill="#ffb74d"/>
    
    <!-- Hair -->
    <path d="M55 85c0-25 20-45 45-45s45 20 45 45c0-35-20-50-45-50s-45 15-45 50z" fill="#3e2723"/>
    
    <!-- Eyes with Glasses -->
    <rect x="75" y="75" width="20" height="10" rx="5" fill="#424242"/>
    <rect x="105" y="75" width="20" height="10" rx="5" fill="#424242"/>
    <path d="M95 80h10" stroke="#424242" stroke-width="2"/>
    
    <!-- Smile -->
    <path d="M85 95c5 10 25 10 30 0" fill="none" stroke="#3e2723" stroke-width="3" stroke-linecap="round"/>
    
    <!-- Shirt -->
    <path d="M60 140v30h80v-30c0-20-18-40-40-40s-40 20-40 40z" fill="#009688"/>
    
    <!-- UX Design Elements -->
    <circle cx="85" cy="160" r="8" fill="white" stroke="#fff" stroke-width="2"/>
    <circle cx="115" cy="160" r="8" fill="white" stroke="#fff" stroke-width="2"/>
    <path d="M85 160h30" stroke="white" stroke-width="2"/>
</svg> 