<?xml version="1.0" encoding="UTF-8"?>
<svg width="200" height="200" viewBox="0 0 200 200" xmlns="http://www.w3.org/2000/svg">
  <style>
    .skin { fill: #d49d6a; }
    .clothes { fill: #c90076; }
    .hair { fill: #000000; }
    .bindi { fill: #ff0000; }
    .field { fill: #f5f2e7; }
  </style>
  
  <!-- Background -->
  <rect class="field" x="0" y="0" width="200" height="200" rx="10"/>
  
  <!-- Farmer (Female) -->
  <g transform="translate(100, 100)">
    <!-- Hair -->
    <path class="hair" d="M0,-60 C-30,-60 -45,-40 -45,-20 C-45,0 -40,10 -30,20 C-20,25 -10,25 0,25 C10,25 20,25 30,20 C40,10 45,0 45,-20 C45,-40 30,-60 0,-60 Z"/>
    
    <!-- Face -->
    <circle class="skin" cx="0" cy="-20" r="25"/>
    
    <!-- Bindi -->
    <circle class="bindi" cx="0" cy="-25" r="3"/>
    
    <!-- Eyes -->
    <ellipse cx="-10" cy="-20" rx="3" ry="4" fill="#000"/>
    <ellipse cx="10" cy="-20" rx="3" ry="4" fill="#000"/>
    
    <!-- Smile -->
    <path d="M-10,-5 C-5,0 5,0 10,-5" stroke="#000" stroke-width="1.5" fill="none"/>
    
    <!-- Saree/Clothes -->
    <rect class="clothes" x="-25" y="5" width="50" height="50" rx="10"/>
    <path class="clothes" d="M-25,5 C-30,-10 -10,-10 25,5" stroke="none"/>
    
    <!-- Arms -->
    <rect class="skin" x="-35" y="5" width="10" height="30" rx="5"/>
    <rect class="skin" x="25" y="5" width="10" height="30" rx="5"/>
  </g>
</svg>