<?xml version="1.0" encoding="UTF-8"?>
<svg width="400" height="300" viewBox="0 0 400 300" xmlns="http://www.w3.org/2000/svg">
    <!-- Background -->
    <rect x="0" y="0" width="400" height="300" fill="#f8f9fa"/>
    
    <!-- Mobile Phone Frame -->
    <rect x="120" y="40" width="160" height="220" rx="15" fill="#424242"/>
    <rect x="130" y="50" width="140" height="200" rx="10" fill="#ffffff"/>
    
    <!-- App Icons -->
    <rect x="140" y="70" width="50" height="50" rx="10" fill="#4CAF50"/>
    <path d="M150 95 Q165 85 180 95" stroke="white" stroke-width="3" fill="none"/>
    <circle cx="165" cy="90" r="3" fill="white"/>
    
    <rect x="210" y="70" width="50" height="50" rx="10" fill="#2196F3"/>
    <path d="M220 95 L235 85 L250 95" stroke="white" stroke-width="3" fill="none"/>
    
    <rect x="140" y="140" width="50" height="50" rx="10" fill="#FFC107"/>
    <circle cx="165" cy="165" r="15" fill="white"/>
    
    <rect x="210" y="140" width="50" height="50" rx="10" fill="#FF5722"/>
    <path d="M220 165 L240 155 L240 175 Z" fill="white"/>
    
    <!-- Bottom Navigation -->
    <rect x="140" y="210" width="120" height="30" rx="5" fill="#EEEEEE"/>
    <circle cx="165" cy="225" r="5" fill="#757575"/>
    <circle cx="200" cy="225" r="5" fill="#757575"/>
    <circle cx="235" cy="225" r="5" fill="#757575"/>
</svg>